<?xml version="1.0" standalone="no"?>
<!DOCTYPE svg PUBLIC "-//W3C//DTD SVG 20010904//EN"
 "http://www.w3.org/TR/2001/REC-SVG-20010904/DTD/svg10.dtd">
<svg version="1.0" xmlns="http://www.w3.org/2000/svg"
 width="700.000000pt" height="700.000000pt" viewBox="0 0 700.000000 700.000000"
 preserveAspectRatio="xMidYMid meet">
<metadata>
Created by potrace 1.11, written by Peter Selinger 2001-2013
</metadata>
<g transform="translate(0.000000,700.000000) scale(0.100000,-0.100000)"
fill="#000000" stroke="none">
<path d="M0 3500 l0 -3500 3500 0 3500 0 0 3500 0 3500 -3500 0 -3500 0 0
-3500z m3860 2312 c150 -303 271 -554 268 -557 -3 -3 -41 5 -84 19 -156 47
-235 62 -414 76 -214 17 -482 -14 -673 -76 -43 -15 -80 -24 -83 -21 -3 2 138
292 311 643 l317 639 43 -85 c23 -47 165 -334 315 -638z m-1652 -452 l512
-173 -77 -42 c-332 -178 -618 -461 -772 -763 -57 -112 -32 -165 -284 580 -125
370 -227 676 -227 680 0 4 75 -19 168 -51 92 -32 398 -136 680 -231z m3251
-272 c-266 -784 -268 -790 -273 -796 -3 -2 -21 28 -40 66 -161 320 -468 627
-788 788 -38 19 -68 38 -65 40 3 4 1331 458 1354 463 1 1 -84 -252 -188 -561z
m-1758 -202 c664 -89 1181 -592 1259 -1226 52 -426 -108 -852 -434 -1157 -396
-371 -969 -492 -1506 -321 -241 77 -501 250 -658 438 -216 258 -324 551 -324
880 -1 388 151 732 444 1005 320 298 775 440 1219 381z m-1971 -838 c-60 -201
-80 -340 -80 -547 0 -206 31 -408 89 -573 11 -32 16 -58 12 -58 -4 0 -295 142
-647 316 l-638 316 514 254 c283 139 574 283 645 318 72 36 131 65 132 65 0 1
-11 -41 -27 -91z m4171 -232 l634 -314 -639 -316 c-351 -174 -641 -315 -643
-312 -3 3 6 40 21 83 62 191 93 459 76 673 -14 178 -29 258 -76 413 -27 89
-27 87 -16 87 5 0 294 -141 643 -314z m-486 -1774 c125 -370 226 -675 223
-678 -6 -6 -1348 448 -1348 456 0 3 30 21 68 39 312 154 606 447 782 778 24
46 44 82 45 80 1 -1 104 -305 230 -675z m-3561 611 c154 -314 476 -637 799
-799 l71 -36 -678 -230 c-373 -126 -680 -228 -682 -225 -5 5 449 1347 456
1347 3 0 18 -25 34 -57z m1211 -954 c134 -32 281 -49 436 -49 206 0 346 20
545 80 l91 27 -112 -231 c-62 -127 -205 -418 -318 -646 l-205 -415 -316 639
c-174 352 -316 643 -316 647 0 4 26 -1 58 -12 31 -11 93 -29 137 -40z"/>
</g>
</svg>
