<?xml version="1.0" encoding="utf-8"?>
<!-- Generator: Adobe Illustrator 21.0.0, SVG Export Plug-In . SVG Version: 6.00 Build 0)  -->
<svg version="1.1" id="Layer_1" xmlns="http://www.w3.org/2000/svg" xmlns:xlink="http://www.w3.org/1999/xlink" x="0px" y="0px"
	 viewBox="0 0 419.8 419.8" style="enable-background:new 0 0 419.8 419.8;" xml:space="preserve">
<style type="text/css">
	.st0{display:none;fill:#615F5C;}
	.st1{display:none;fill:none;stroke:#000000;stroke-width:0.7;}
	.st2{display:none;fill:#FF8C16;}
	.st3{clip-path:url(#SVGID_2_);fill:#222222;}
</style>
<desc  codePlatform="0" gridStep="20" iVinci="yes" showGrid="no" snapToGrid="no" version="4.6"></desc>
<g>
	<rect x="11" y="22.8" class="st0" width="390.7" height="383"/>
	<rect x="11" y="22.8" class="st1" width="390.7" height="383"/>
	<path class="st2" d="M163,178.6c0-1.9,0.3-3.5,0.9-4.8c0.4-1,1-1.8,1.7-2.6c0.7-0.8,1.5-1.3,2.4-1.7c1.2-0.5,2.5-0.7,4-0.7
		c2.7,0,4.9,0.9,6.6,2.6c1.6,1.7,2.5,4.1,2.5,7.1s-0.8,5.4-2.5,7.1c-1.6,1.7-3.8,2.5-6.6,2.5s-5-0.8-6.6-2.5
		C163.8,183.9,163,181.5,163,178.6L163,178.6z M166.9,178.4c0,2.1,0.5,3.7,1.5,4.8c1,1.1,2.2,1.6,3.7,1.6s2.7-0.5,3.7-1.6
		s1.4-2.7,1.4-4.9c0-2.1-0.5-3.7-1.4-4.8c-0.9-1.1-2.2-1.6-3.7-1.6s-2.8,0.5-3.7,1.6C167.4,174.7,166.9,176.3,166.9,178.4
		L166.9,178.4z"/>
	<path class="st2" d="M185,174.3h3.3v2c0.4-0.7,1-1.2,1.8-1.7c0.7-0.4,1.6-0.6,2.5-0.6c1.6,0,2.9,0.6,4,1.8c1.1,1.2,1.6,2.9,1.6,5.1
		c0,2.3-0.5,4-1.6,5.3c-1.1,1.2-2.4,1.9-4,1.9c-0.7,0-1.4-0.1-2-0.4c-0.6-0.3-1.2-0.8-1.9-1.5v6.8H185V174.3z M188.6,180.8
		c0,1.5,0.3,2.6,0.9,3.4c0.6,0.7,1.3,1.1,2.2,1.1c0.8,0,1.5-0.3,2.1-1c0.6-0.7,0.8-1.8,0.8-3.3c0-1.4-0.3-2.5-0.9-3.1
		c-0.6-0.7-1.3-1-2.1-1c-0.9,0-1.6,0.3-2.2,1C188.9,178.5,188.6,179.5,188.6,180.8L188.6,180.8z"/>
	<path class="st2" d="M210.2,183.5l3.6,0.6c-0.5,1.3-1.2,2.3-2.2,3s-2.2,1-3.7,1c-2.3,0-4.1-0.8-5.2-2.3c-0.9-1.2-1.3-2.8-1.3-4.6
		c0-2.2,0.6-4,1.7-5.3c1.2-1.3,2.6-1.9,4.4-1.9c2,0,3.6,0.7,4.7,2c1.2,1.3,1.7,3.4,1.7,6.1H205c0,1.1,0.3,1.9,0.9,2.5
		c0.6,0.6,1.2,0.9,2.1,0.9c0.6,0,1-0.2,1.4-0.5C209.7,184.6,210,184.1,210.2,183.5L210.2,183.5z M210.4,179.9c0-1-0.3-1.8-0.8-2.4
		c-0.5-0.5-1.1-0.8-1.9-0.8s-1.4,0.3-1.9,0.9s-0.8,1.3-0.8,2.3H210.4z"/>
	<path class="st2" d="M229.9,187.8h-3.6v-6.9c0-1.5-0.1-2.4-0.2-2.8c-0.2-0.4-0.4-0.8-0.7-1s-0.8-0.4-1.2-0.4
		c-0.6,0-1.2,0.2-1.7,0.5s-0.8,0.8-1,1.3c-0.2,0.6-0.3,1.6-0.3,3.1v6.1h-3.6v-13.5h3.3v2c1.2-1.5,2.7-2.3,4.4-2.3
		c0.8,0,1.5,0.1,2.2,0.4c0.6,0.3,1.1,0.6,1.5,1.1c0.3,0.4,0.6,0.9,0.7,1.5s0.2,1.4,0.2,2.4C229.9,179.3,229.9,187.8,229.9,187.8z"/>
	<path class="st2" d="M166.4,220.8l-4.4-18.7h3.8l2.8,12.8l3.4-12.8h4.5l3.3,13l2.9-13h3.8l-4.5,18.6h-4l-3.7-13.9l-3.7,13.9
		L166.4,220.8L166.4,220.8z"/>
	<path class="st2" d="M194.8,216.5l3.6,0.6c-0.5,1.3-1.2,2.3-2.2,3s-2.2,1-3.7,1c-2.3,0-4.1-0.8-5.2-2.3c-0.9-1.2-1.3-2.8-1.3-4.6
		c0-2.2,0.6-4,1.8-5.3c1.2-1.3,2.6-1.9,4.4-1.9c2,0,3.6,0.7,4.7,2c1.2,1.3,1.7,3.4,1.7,6.1h-8.9c0,1.1,0.3,1.9,0.9,2.5
		c0.6,0.6,1.2,0.9,2.1,0.9c0.6,0,1-0.2,1.4-0.5C194.3,217.6,194.6,217.1,194.8,216.5L194.8,216.5z M195,212.9c0-1-0.3-1.8-0.8-2.4
		c-0.5-0.5-1.1-0.8-1.9-0.8s-1.4,0.3-1.9,0.9c-0.5,0.6-0.8,1.3-0.8,2.3H195z"/>
	<path class="st2" d="M204.9,211.4l-3.2-0.6c0.4-1.3,1-2.3,1.9-2.9c0.9-0.6,2.2-0.9,4-0.9c1.6,0,2.8,0.2,3.6,0.6
		c0.8,0.4,1.3,0.9,1.6,1.4c0.3,0.6,0.5,1.6,0.5,3.2v4.2c0,1.2,0.1,2.1,0.2,2.6c0.1,0.6,0.3,1.2,0.6,1.8h-3.5
		c-0.1-0.2-0.2-0.6-0.3-1.1c-0.1-0.2-0.1-0.4-0.1-0.4c-0.6,0.6-1.3,1-2,1.3s-1.4,0.4-2.2,0.4c-1.4,0-2.5-0.4-3.3-1.1
		c-0.8-0.8-1.2-1.7-1.2-2.9c0-0.8,0.2-1.4,0.5-2c0.4-0.6,0.9-1.1,1.5-1.4c0.7-0.3,1.6-0.6,2.8-0.8c1.7-0.3,2.8-0.6,3.5-0.9v-0.4
		c0-0.7-0.2-1.2-0.5-1.5c-0.3-0.3-1-0.4-1.9-0.4c-0.6,0-1.1,0.1-1.5,0.4C205.4,210.3,205.1,210.8,204.9,211.4L204.9,211.4z
		 M209.7,214.3c-0.5,0.2-1.2,0.3-2.2,0.5s-1.6,0.4-1.9,0.6c-0.5,0.3-0.7,0.8-0.7,1.3s0.2,0.9,0.6,1.3c0.4,0.4,0.8,0.5,1.4,0.5
		s1.3-0.2,1.8-0.6c0.4-0.3,0.7-0.7,0.9-1.2c0.1-0.3,0.1-0.9,0.1-1.7C209.7,215,209.7,214.3,209.7,214.3z"/>
	<path class="st2" d="M223.7,207.3v2.8h-2.4v5.4c0,1.1,0,1.7,0.1,1.9c0,0.2,0.2,0.3,0.3,0.4c0.2,0.1,0.4,0.2,0.6,0.2
		c0.3,0,0.8-0.1,1.4-0.3l0.3,2.8c-0.8,0.4-1.8,0.5-2.8,0.5c-0.6,0-1.2-0.1-1.7-0.3s-0.9-0.5-1.1-0.8c-0.2-0.3-0.4-0.8-0.5-1.4
		c-0.1-0.4-0.1-1.3-0.1-2.5v-5.9h-1.6v-2.8h1.6v-2.7l3.6-2.1v4.8L223.7,207.3L223.7,207.3z"/>
	<path class="st2" d="M231.6,202.1v6.8c1.1-1.3,2.5-2,4.1-2c0.8,0,1.6,0.2,2.2,0.5c0.7,0.3,1.2,0.7,1.5,1.2s0.6,1,0.7,1.6
		s0.2,1.5,0.2,2.7v7.9h-3.6v-7.1c0-1.4-0.1-2.3-0.2-2.7c-0.1-0.4-0.4-0.7-0.7-0.9c-0.3-0.2-0.8-0.3-1.3-0.3c-0.6,0-1.1,0.1-1.6,0.4
		c-0.5,0.3-0.8,0.7-1,1.3s-0.3,1.4-0.3,2.6v6.8H228v-18.6h3.6V202.1z"/>
	<path class="st2" d="M253,216.5l3.6,0.6c-0.5,1.3-1.2,2.3-2.2,3s-2.2,1-3.7,1c-2.3,0-4.1-0.8-5.2-2.3c-0.9-1.2-1.3-2.8-1.3-4.6
		c0-2.2,0.6-4,1.8-5.3c1.2-1.3,2.6-1.9,4.4-1.9c2,0,3.6,0.7,4.7,2c1.2,1.3,1.7,3.4,1.7,6.1h-8.9c0,1.1,0.3,1.9,0.9,2.5
		c0.5,0.6,1.2,0.9,2.1,0.9c0.6,0,1-0.2,1.4-0.5C252.5,217.6,252.8,217.1,253,216.5L253,216.5z M253.2,212.9c0-1-0.3-1.8-0.8-2.4
		c-0.5-0.5-1.1-0.8-1.9-0.8c-0.8,0-1.4,0.3-1.9,0.9c-0.5,0.6-0.8,1.3-0.8,2.3H253.2z"/>
	<path class="st2" d="M263.8,220.8h-3.6v-13.5h3.3v1.9c0.6-0.9,1.1-1.5,1.5-1.8c0.5-0.3,1-0.4,1.5-0.4c0.8,0,1.6,0.2,2.3,0.7
		l-1.1,3.1c-0.6-0.4-1.2-0.6-1.7-0.6s-0.9,0.1-1.3,0.4c-0.3,0.3-0.6,0.8-0.8,1.5c-0.2,0.7-0.3,2.2-0.3,4.5v4.2H263.8z"/>
	<path class="st2" d="M163.7,253.8v-18.6h5.6l3.4,12.7l3.3-12.7h5.6v18.6h-3.5v-14.7l-3.7,14.7h-3.6l-3.7-14.7v14.7H163.7z"/>
	<path class="st2" d="M190,244.4l-3.2-0.6c0.4-1.3,1-2.3,1.9-2.9c0.9-0.6,2.2-0.9,4-0.9c1.6,0,2.8,0.2,3.6,0.6
		c0.8,0.4,1.3,0.9,1.6,1.4c0.3,0.6,0.5,1.6,0.5,3.2v4.2c0,1.2,0.1,2.1,0.2,2.6c0.1,0.6,0.3,1.2,0.6,1.8h-3.5
		c-0.1-0.2-0.2-0.6-0.3-1.1c-0.1-0.2-0.1-0.4-0.1-0.4c-0.6,0.6-1.3,1-2,1.3s-1.4,0.4-2.2,0.4c-1.4,0-2.5-0.4-3.3-1.1
		c-0.8-0.8-1.2-1.7-1.2-2.9c0-0.8,0.2-1.4,0.5-2c0.4-0.6,0.9-1.1,1.5-1.4c0.7-0.3,1.6-0.6,2.8-0.8c1.7-0.3,2.8-0.6,3.5-0.9v-0.4
		c0-0.7-0.2-1.2-0.5-1.5c-0.3-0.3-1-0.4-1.9-0.4c-0.6,0-1.1,0.1-1.5,0.4C190.5,243.3,190.3,243.8,190,244.4L190,244.4z M194.8,247.3
		c-0.5,0.2-1.2,0.3-2.2,0.5s-1.6,0.4-1.9,0.6c-0.5,0.3-0.7,0.8-0.7,1.3s0.2,0.9,0.6,1.3c0.4,0.4,0.8,0.5,1.4,0.5
		c0.6,0,1.3-0.2,1.8-0.6c0.4-0.3,0.7-0.7,0.9-1.2c0.1-0.3,0.1-0.9,0.1-1.7C194.8,248,194.8,247.3,194.8,247.3z"/>
	<path class="st2" d="M202.5,240.3h3.3v2c0.4-0.7,1-1.2,1.8-1.6c0.7-0.4,1.6-0.6,2.5-0.6c1.6,0,2.9,0.6,4,1.8
		c1.1,1.2,1.6,2.9,1.6,5.1c0,2.3-0.6,4-1.7,5.3s-2.4,1.9-4,1.9c-0.7,0-1.4-0.1-2-0.4c-0.6-0.3-1.2-0.8-1.9-1.5v6.8h-3.6V240.3z
		 M206.1,246.8c0,1.5,0.3,2.6,0.9,3.4c0.6,0.7,1.3,1.1,2.2,1.1c0.8,0,1.5-0.3,2.1-1c0.5-0.7,0.8-1.8,0.8-3.3c0-1.4-0.3-2.5-0.9-3.1
		c-0.6-0.7-1.3-1-2.1-1c-0.9,0-1.6,0.3-2.2,1C206.3,244.5,206.1,245.5,206.1,246.8L206.1,246.8z"/>
	<g>
		<g>
			<defs>
				<rect id="SVGID_1_" width="419.8" height="419.8"/>
			</defs>
			<clipPath id="SVGID_2_">
				<use xlink:href="#SVGID_1_"  style="overflow:visible;"/>
			</clipPath>
			<path class="st3" d="M0-0.2h420v420H0V-0.2z M248.3,314.3c-11.9,4.4-24.8,6.8-38.3,6.8s-26.4-2.4-38.3-6.8l38.3,77.6L248.3,314.3
				z M109.1,256.6l-27.8,82l82-27.8C139.4,299.7,120.1,280.4,109.1,256.6L109.1,256.6z M310.9,256.6c-11.1,23.9-30.3,43.1-54.2,54.2
				l82,27.8L310.9,256.6z M210,125.9c-48.7,0-88.1,37.6-88.1,83.9s39.4,83.9,88.1,83.9c48.6,0,88.1-37.6,88.1-83.9
				S258.6,125.9,210,125.9L210,125.9z M105.5,171.5l-77.6,38.3l77.6,38.3c-4.4-11.9-6.8-24.8-6.8-38.3
				C98.7,196.4,101.1,183.5,105.5,171.5L105.5,171.5z M314.5,171.5c4.4,11.9,6.8,24.8,6.8,38.3c0,13.5-2.4,26.4-6.8,38.3l77.6-38.3
				L314.5,171.5L314.5,171.5z M81.2,81l27.8,82c11.1-23.8,30.3-43.1,54.2-54.2L81.2,81z M338.8,81l-82,27.8
				c23.9,11.1,43.1,30.3,54.2,54.2L338.8,81z M210,27.7l-38.3,77.6c11.9-4.4,24.8-6.8,38.3-6.8s26.4,2.4,38.3,6.8L210,27.7z"/>
		</g>
	</g>
</g>
</svg>
